#!OML:ASF F:\VICON\USERDATA\INSTALL\Justin_Nancy\Justin_Nancy.ASF
:FULLY-SPECIFIED
:DEGREES
32
root -11.7461 16.985 -19.4597 -0.638818 -2.98731 -3.63721
lowerback 9.00681 4.13449 1.91959
upperback 0.520967 5.91257 4.38847
thorax -4.77365 2.93138 2.72215
lowerneck -18.0703 -5.61718 -10.8788
upperneck 16.5544 -6.07731 6.43524
head 8.68287 -2.90106 3.1715
rclavicle -3.67752e-015 3.97569e-015
rhumerus -40.3507 19.1167 -88.8765
rradius 122.574
rwrist -1.14594
rhand -20.143 31.0049
rfingers 7.12502
rthumb 6.20179 1.11571
lclavicle -3.67752e-015 3.97569e-015
lhumerus -66.9923 -3.57822 93.1385
lradius 110.926
lwrist 16.5763
lhand -20.8717 7.35705
lfingers 7.12502
lthumb 5.4982 37.2657
rfemur 14.5574 3.59296 22.4608
rtibia 55.2959
rfoot 9.32948 4.63551
rtoes 1.89042
lfemur -33.7011 3.44672 -27.7255
ltibia 22.7192
lfoot 21.0989 0.314653
ltoes 14.8302
33
root -11.755 16.8494 -19.0973 -1.35028 -3.03943 -3.9296
lowerback 9.6878 4.07058 1.80951
upperback 0.558949 5.86555 4.74871
thorax -5.16456 2.91198 3.1196
lowerneck -17.6894 -5.41091 -10.784
upperneck 16.5987 -5.79353 6.09978
head 8.59118 -2.80359 3.08598
rclavicle 3.87133e-014 -1.43125e-014
rhumerus -40.0897 18.7366 -88.5291
rradius 121.196
rwrist 0.0519633
rhand -19.4938 34.2163
rfingers 7.12502
rthumb 6.82848 4.34646
lclavicle 3.87133e-014 -1.43125e-014
lhumerus -67.107 -3.48857 93.3092
lradius 111.354
lwrist 16.8778
lhand -20.7548 7.31243
lfingers 7.12502
lthumb 5.61111 37.2181
rfemur 13.9511 3.17027 21.9757
rtibia 58.6057
rfoot 8.04576 3.53106
rtoes 1.63666
lfemur -34.0248 4.81526 -28.3294
ltibia 26.5577
lfoot 15.0045 -3.5264
ltoes 14.0833
34
root -11.761 16.7067 -18.7402 -2.03763 -3.14964 -4.13446
lowerback 10.2104 4.08014 1.791
upperback 0.708906 5.90203 4.92651
thorax -5.323 2.93037 3.28036
lowerneck -17.1334 -5.27219 -10.3717
upperneck 16.2616 -5.68366 5.72096
head 8.3447 -2.77046 2.9114
rclavicle -2.58917e-014 2.22639e-014
rhumerus -40.1501 18.8809 -89.1392
rradius 120.43
rwrist -0.928124
rhand -19.4712 31.5177
rfingers 7.12502
rthumb 6.85027 1.64855
lclavicle -2.58917e-014 2.22639e-014
lhumerus -66.7916 -3.78829 93.4322
lradius 111.638
lwrist 17.2314
lhand -21.291 7.81531
lfingers 7.12502
lthumb 5.09339 37.7341
rfemur 13.3242 2.68174 21.2831
rtibia 61.948
rfoot 6.39453 2.23864
rtoes -0.747191
lfemur -34.1847 5.42901 -28.5936
ltibia 30.7169
lfoot 10.159 -3.724
ltoes 13.5481
35
root -11.7609 16.5568 -18.3863 -2.57461 -3.23182 -4.06921
lowerback 10.3483 4.07402 1.65267
upperback 0.99485 5.8669 4.92185
thorax -5.11037 2.91576 3.35784
lowerneck -16.7371 -5.064 -9.76455
upperneck 15.8166 -5.51232 5.38062
head 8.08211 -2.68812 2.72516
rclavicle 5.51627e-015 1.35174e-014
rhumerus -39.1908 19.0041 -89.441
rradius 119.02
rwrist -1.20152
rhand -19.8861 30.2887
rfingers 7.12502
rthumb 6.44974 0.406891
lclavicle 5.51627e-015 1.35174e-014
lhumerus -66.0415 -4.17983 93.422
lradius 111.903
lwrist 17.8583
lhand -21.5089 8.24242
lfingers 7.12502
lthumb 4.88295 38.1662
rfemur 12.3068 2.09659 20.1584
rtibia 65.3577
rfoot 4.58091 0.872326
rtoes -1.52458
lfemur -34.3291 5.27891 -28.8301
ltibia 34.7546
lfoot 5.82064 -2.1914
ltoes 13.7199
36
root -11.7564 16.4243 -18.042 -3.13034 -3.21751 -3.94523
lowerback 10.7572 3.96785 1.43344
upperback 1.21076 5.70797 4.96451
thorax -5.12877 2.84065 3.52949
lowerneck -16.9206 -4.87838 -9.57921
upperneck 16.0943 -5.2716 5.26422
head 8.17892 -2.5739 2.68522
rclavicle -2.23136e-014 -3.57812e-014
rhumerus -38.9642 18.6478 -89.7576
rradius 117.561
rwrist -0.613346
rhand -19.817 30.8064
rfingers 7.12502
rthumb 6.51653 0.926677
lclavicle -2.23136e-014 -3.57812e-014
lhumerus -65.1152 -4.22571 93.3813
lradius 111.911
lwrist 18.723
lhand -21.0796 8.54324
lfingers 7.12502
lthumb 5.29754 38.457
rfemur 10.79 1.28937 18.8638
rtibia 68.786
rfoot 3.17554 -0.394134
rtoes -1.14602
lfemur -34.3455 4.6803 -28.9362
ltibia 38.3158
lfoot 2.23158 -0.698695
ltoes 13.8033
37
root -11.7462 16.31 -17.7161 -3.69807 -3.13127 -3.3456
lowerback 11.6244 3.81789 0.791848
upperback 1.28144 5.45463 4.87045
thorax -5.57346 2.72574 3.77922
lowerneck -17.2877 -4.65263 -9.42256
upperneck 16.5167 -4.94291 5.09136
head 8.35038 -2.42451 2.64061
rclavicle 6.21699e-014 2.70347e-014
rhumerus -38.8273 18.3017 -90.0754
rradius 116.074
rwrist -0.0152057
rhand -19.4151 30.9671
rfingers 7.12502
rthumb 6.90449 1.09972
lclavicle 6.21699e-014 2.70347e-014
lhumerus -64.1523 -4.1783 93.327
lradius 111.612
lwrist 19.8879
lhand -20.75 8.94879
lfingers 7.12502
lthumb 5.61576 38.8544
rfemur 8.87482 0.281893 16.8707
rtibia 72.2774
rfoot 1.8988 -1.36712
rtoes -1.28896
lfemur -34.206 4.07653 -29.592
ltibia 41.3234
lfoot -0.622947 0.670396
ltoes 13.9742
38
root -11.7372 16.2059 -17.4022 -3.89616 -2.89042 -2.00783
lowerback 12.097 3.74236 -0.565053
upperback 1.33441 5.1665 4.50452
thorax -5.84606 2.61117 4.17959
lowerneck -17.7336 -4.34123 -9.25088
upperneck 16.8831 -4.52364 5.0779
head 8.51487 -2.21423 2.65993
rclavicle -3.13086e-014 -4.85035e-014
rhumerus -38.3278 17.9228 -90.3916
rradius 114.43
rwrist 0.18037
rhand -19.2138 31.583
rfingers 7.12502
rthumb 7.09881 1.72205
lclavicle -3.13086e-014 -4.85035e-014
lhumerus -62.8246 -4.45946 93.2339
lradius 111.071
lwrist 21.2861
lhand -20.4622 8.8543
lfingers 7.12502
lthumb 5.89355 38.7523
rfemur 6.30182 -0.914637 13.9149
rtibia 75.8582
rfoot 0.532516 -2.20587
rtoes 0.259001
lfemur -34.2862 3.53502 -31.163
ltibia 43.9241
lfoot -2.89898 1.90034
ltoes 14.7647
